<svg width="57" height="56" viewBox="0 0 57 56" fill="none" xmlns="http://www.w3.org/2000/svg">
<g clip-path="url(#clip0_1_47)">
<path d="M28.5 2.97873C33.538 2.97679 38.4633 4.44283 42.653 7.19143C46.8427 9.94003 50.1085 13.8479 52.0374 18.4203C53.9662 22.9927 54.4714 28.0242 53.489 32.8788C52.5066 37.7333 50.0809 42.1925 46.5185 45.6923C42.9562 49.1922 38.4173 51.5756 33.4761 52.5407C28.5349 53.5059 23.4133 53.0095 18.7593 51.1145C14.1052 49.2195 10.1278 46.0108 7.33009 41.8946C4.53241 37.7784 3.04019 32.9394 3.04217 27.9899C3.05012 21.3589 5.73482 15.0018 10.5074 10.313C15.2799 5.62414 21.7506 2.98654 28.5 2.97873ZM28.5 0.0292969C22.8628 0.0292972 17.3523 1.67181 12.6653 4.74893C7.97824 7.82604 4.32532 12.1995 2.16851 17.3164C0.0117088 22.4333 -0.552134 28.0639 0.548357 33.4956C1.64885 38.9274 4.36421 43.9164 8.35101 47.8319C12.3378 51.7474 17.417 54.4133 22.9461 55.4926C28.4752 56.5718 34.2059 56.0162 39.4135 53.8954C44.621 51.7747 49.0714 48.184 52.2018 43.5782C55.3322 38.9723 57.002 33.558 57 28.0197C56.9974 20.5953 53.9935 13.4758 48.649 8.2269C43.3045 2.97801 36.057 0.0292964 28.5 0.0292969Z" fill="#D5A439"/>
<path d="M34.6744 10.156H22.3257C21.6921 10.1775 21.0692 10.3219 20.4928 10.5811C19.9163 10.8402 19.3978 11.209 18.9671 11.666C18.5364 12.1229 18.202 12.6591 17.9833 13.2437C17.7645 13.8282 17.6657 14.4495 17.6925 15.0717V40.9285C17.652 42.1769 18.1169 43.3901 18.9854 44.3023C19.8539 45.2145 21.055 45.7517 22.3257 45.7953H34.6744C35.945 45.7517 37.1462 45.2145 38.0146 44.3023C38.8831 43.3901 39.3481 42.1769 39.3076 40.9285V14.9834C39.3374 13.7416 38.8676 12.5382 38.0002 11.6345C37.1329 10.7309 35.9378 10.1996 34.6744 10.156ZM31.5922 42.6H25.4078V40.9285H31.5922V42.6ZM36.5957 37.7333H20.3843V15.0323H36.5957V37.7333Z" fill="#D5A439"/>
</g>
<defs>
<clipPath id="clip0_1_47">
<rect width="57" height="56" fill="white"/>
</clipPath>
</defs>
</svg>
