<svg width="253" height="113" viewBox="0 0 253 113" fill="none" xmlns="http://www.w3.org/2000/svg">
<g clip-path="url(#clip0_1_120)">
<path d="M1.62759 100.892H2.09746L4.73583 104.727H6.09116L3.26303 100.792C3.87055 100.717 4.42829 100.415 4.82633 99.945C5.22436 99.4752 5.43382 98.8718 5.41349 98.2537C5.41955 97.8212 5.3145 97.3945 5.10863 97.0153C4.90276 96.636 4.6031 96.3172 4.23888 96.0899C3.49747 95.7503 2.6831 95.6058 1.87157 95.6698H0.516235V104.727H1.62759V100.892ZM1.62759 96.6832H1.92578C3.03715 96.6832 4.36539 96.8841 4.36539 98.2993C4.36539 99.7145 3.12752 99.961 1.98904 99.961H1.62759V96.6832Z" fill="white"/>
<path d="M12.9853 96.7016V95.6699H8.16937V104.727H12.9853V103.695H9.28075V100.271H12.8769V99.2398H9.28075V96.7016H12.9853Z" fill="white"/>
<path d="M21.9667 104.727V95.6699H20.8553V99.322H16.5815V95.6699H15.4611V104.727H16.5815V100.381H20.8553V104.727H21.9667Z" fill="white"/>
<path d="M25.0297 104.727L26.0507 102.453H30.171L31.192 104.727H32.3937L28.1108 95.2864L23.8461 104.727H25.0297ZM28.1108 97.7606L29.7011 101.413H26.5567L28.1108 97.7606Z" fill="white"/>
<path d="M38.6192 98.1623C38.6192 96.1171 37.0199 95.6697 35.3303 95.6697H34.2369V104.727H36.3332C37.9144 104.727 39.4505 104.005 39.4505 102.189C39.4529 101.656 39.2751 101.138 38.9464 100.721C38.6177 100.304 38.158 100.013 37.6434 99.8969C37.9446 99.7223 38.194 99.4693 38.3656 99.1642C38.5373 98.8591 38.6248 98.5132 38.6192 98.1623ZM35.3573 96.6831H35.6646C36.7127 96.6831 37.5711 96.8931 37.5711 98.1713C37.5711 99.4495 36.6675 99.6778 35.6465 99.6778H35.3573V96.6831ZM38.3301 102.161C38.3301 103.449 37.2458 103.759 36.2157 103.759H35.3122V100.618H35.9989C37.047 100.618 38.3029 100.846 38.3029 102.116L38.3301 102.161Z" fill="white"/>
<path d="M42.984 95.6699H41.863V104.727H42.984V95.6699Z" fill="white"/>
<path d="M45.8477 95.6699V104.727H49.6878V103.695H46.9681V95.6699H45.8477Z" fill="white"/>
<path d="M52.7062 95.6699H51.5852V104.727H52.7062V95.6699Z" fill="white"/>
<path d="M57.9824 104.727V96.7016H60.1148V95.6699H54.7386V96.7016H56.871V104.727H57.9824Z" fill="white"/>
<path d="M61.4791 104.727L62.5092 102.453H66.6204L67.6414 104.727H68.8431L64.5603 95.2864L60.2774 104.727H61.4791ZM64.5603 97.7606L66.1596 101.413H62.97L64.5603 97.7606Z" fill="white"/>
<path d="M72.2586 104.727V96.7016H74.382V95.6699H69.0058V96.7016H71.1382V104.727H72.2586Z" fill="white"/>
<path d="M77.545 95.6699H76.424V104.727H77.545V95.6699Z" fill="white"/>
<path d="M79.7762 100.198C79.7762 101.458 80.2712 102.665 81.1523 103.555C82.0334 104.446 83.2285 104.946 84.4746 104.946C85.7207 104.946 86.9159 104.446 87.797 103.555C88.6781 102.665 89.1731 101.458 89.1731 100.198C89.1731 98.9392 88.6781 97.7316 87.797 96.8413C86.9159 95.9509 85.7207 95.4507 84.4746 95.4507C83.2285 95.4507 82.0334 95.9509 81.1523 96.8413C80.2712 97.7316 79.7762 98.9392 79.7762 100.198ZM88.0527 100.198C88.1258 100.716 88.0878 101.244 87.9415 101.746C87.7952 102.248 87.5439 102.712 87.2046 103.107C86.8653 103.502 86.446 103.819 85.975 104.036C85.504 104.253 84.9923 104.366 84.4746 104.366C83.9569 104.366 83.4453 104.253 82.9743 104.036C82.5033 103.819 82.084 103.502 81.7447 103.107C81.4054 102.712 81.1541 102.248 81.0078 101.746C80.8615 101.244 80.8236 100.716 80.8966 100.198C80.8236 99.6805 80.8615 99.1528 81.0078 98.651C81.1541 98.1492 81.4054 97.685 81.7447 97.2899C82.084 96.8947 82.5033 96.5778 82.9743 96.3607C83.4453 96.1435 83.9569 96.0311 84.4746 96.0311C84.9923 96.0311 85.504 96.1435 85.975 96.3607C86.446 96.5778 86.8653 96.8947 87.2046 97.2899C87.5439 97.685 87.7952 98.1492 87.9415 98.651C88.0878 99.1528 88.1258 99.6805 88.0527 100.198Z" fill="white"/>
<path d="M91.3417 95.2407V104.727H92.4621V97.9798L99.1936 105.101V95.6698H98.0822V102.362L91.3417 95.2407Z" fill="white"/>
<path d="M106.386 102.253C106.387 102.609 106.458 102.961 106.596 103.288C106.733 103.616 106.934 103.913 107.187 104.161C107.439 104.41 107.738 104.604 108.066 104.734C108.394 104.864 108.744 104.927 109.097 104.919C109.623 104.897 110.139 104.759 110.607 104.514C111.075 104.27 111.485 103.925 111.807 103.503L112.783 104.727H114.202L112.602 102.718L113.696 101.422L112.982 100.682L111.934 101.906L110.063 99.6232C110.813 99.0662 111.699 98.3814 111.699 97.3679C111.654 96.8355 111.411 96.3402 111.018 95.9829C110.625 95.6256 110.111 95.4332 109.583 95.4448C109.054 95.4565 108.55 95.6713 108.172 96.0456C107.795 96.4198 107.573 96.9254 107.551 97.4593C107.62 98.2238 107.976 98.9327 108.545 99.4405L107.985 99.8514C107.535 100.076 107.15 100.416 106.869 100.837C106.589 101.258 106.422 101.746 106.386 102.253ZM109.575 96.3728C109.711 96.3501 109.85 96.359 109.982 96.3987C110.114 96.4385 110.235 96.5081 110.336 96.6024C110.437 96.6966 110.515 96.8129 110.565 96.9424C110.615 97.0719 110.635 97.2113 110.624 97.3498C110.624 98.0163 110 98.3814 109.548 98.7466L109.404 98.838L109.106 98.4545C108.803 98.1548 108.614 97.7574 108.573 97.3315C108.574 97.2012 108.601 97.0725 108.652 96.9531C108.704 96.8337 108.778 96.726 108.872 96.6365C108.966 96.547 109.076 96.4775 109.197 96.4322C109.318 96.3869 109.447 96.3666 109.575 96.3728ZM109.06 100.335L109.169 100.262L111.157 102.709C110.651 103.365 109.912 103.794 109.097 103.905C108.664 103.887 108.254 103.707 107.947 103.4C107.639 103.092 107.456 102.68 107.434 102.243C107.434 101.376 108.446 100.764 109.06 100.335Z" fill="white"/>
<path d="M127.086 104.727V95.6699H125.966V99.322H121.692V95.6699H120.572V104.727H121.692V100.381H125.966V104.727H127.086Z" fill="white"/>
<path d="M134.712 96.7016V95.6699H129.896V104.727H134.712V103.695H131.008V100.271H134.604V99.2398H131.008V96.7016H134.712Z" fill="white"/>
<path d="M137.531 104.727L138.598 102.444H142.718L143.739 104.718H144.923L140.64 95.2773L136.357 104.718L137.531 104.727ZM140.613 97.7607L142.203 101.413H139.013L140.613 97.7607Z" fill="white"/>
<path d="M146.838 95.6699V104.727H150.687V103.695H147.958V95.6699H146.838Z" fill="white"/>
<path d="M154.672 104.727V96.7016H156.795V95.6699H151.419V96.7016H153.552V104.727H154.672Z" fill="white"/>
<path d="M165.289 104.727V95.6699H164.168V99.322H159.894V95.6699H158.774V104.727H159.894V100.381H164.168V104.727H165.289Z" fill="white"/>
<path d="M172.255 96.5097C173.127 96.5154 173.968 96.8397 174.622 97.4227V96.0532C173.939 95.6437 173.158 95.4321 172.364 95.4415C171.74 95.4342 171.12 95.5522 170.542 95.7884C169.963 96.0247 169.437 96.3746 168.993 96.8179C168.55 97.2612 168.197 97.789 167.957 98.3709C167.716 98.9527 167.593 99.577 167.593 100.207C167.595 100.825 167.718 101.437 167.955 102.006C168.192 102.576 168.537 103.093 168.972 103.527C169.407 103.961 169.922 104.305 170.489 104.537C171.055 104.77 171.662 104.887 172.273 104.882C173.097 104.876 173.906 104.656 174.622 104.243V102.91C174.183 103.301 173.656 103.579 173.087 103.719C172.518 103.859 171.924 103.857 171.355 103.714C170.787 103.57 170.262 103.289 169.825 102.895C169.388 102.501 169.052 102.005 168.847 101.451C168.642 100.897 168.573 100.3 168.646 99.713C168.72 99.1257 168.933 98.5654 169.269 98.0801C169.604 97.5948 170.051 97.1991 170.571 96.9271C171.091 96.6552 171.669 96.5151 172.255 96.5189V96.5097Z" fill="white"/>
<path d="M177.396 104.727L178.426 102.453H182.538L183.559 104.727H184.76L180.477 95.2864L176.195 104.727H177.396ZM180.477 97.7606L182.077 101.413H178.887L180.477 97.7606Z" fill="white"/>
<path d="M191.609 98.2537C191.613 97.8217 191.507 97.396 191.301 97.0172C191.095 96.6384 190.797 96.3191 190.435 96.0899C189.693 95.7503 188.879 95.6058 188.067 95.6698H186.703V104.727H187.823V100.892H188.293L190.932 104.727H192.287L189.459 100.792C190.066 100.717 190.624 100.415 191.022 99.945C191.42 99.4752 191.63 98.8718 191.609 98.2537ZM188.185 99.961H187.823V96.6832H188.122C189.233 96.6832 190.561 96.8841 190.561 98.2993C190.561 99.7145 189.323 99.961 188.185 99.961Z" fill="white"/>
<path d="M199.181 96.7016V95.6699H194.365V104.727H199.181V103.695H195.476V100.271H199.073V99.2398H195.476V96.7016H199.181Z" fill="white"/>
<path d="M210.539 96.5097C211.413 96.5181 212.256 96.8419 212.915 97.4227V96.0532C212.228 95.6447 211.444 95.4332 210.647 95.4415C210.023 95.4342 209.404 95.5522 208.826 95.7884C208.247 96.0247 207.721 96.3746 207.277 96.8179C206.833 97.2612 206.481 97.789 206.241 98.3709C206 98.9527 205.876 99.577 205.876 100.207C205.879 100.825 206.002 101.437 206.239 102.006C206.475 102.576 206.821 103.093 207.256 103.527C207.691 103.961 208.206 104.305 208.773 104.537C209.339 104.77 209.945 104.887 210.557 104.882C211.384 104.876 212.196 104.656 212.915 104.243V102.91C212.476 103.301 211.95 103.579 211.381 103.719C210.812 103.859 210.218 103.857 209.65 103.714C209.082 103.571 208.557 103.291 208.12 102.897C207.683 102.504 207.347 102.009 207.141 101.455C206.935 100.902 206.866 100.306 206.938 99.7186C207.011 99.1317 207.223 98.5714 207.557 98.0858C207.892 97.6002 208.338 97.2038 208.857 96.9309C209.376 96.658 209.953 96.5166 210.539 96.5189V96.5097Z" fill="white"/>
<path d="M220.261 96.7016V95.6699H215.436V104.727H220.261V103.695H216.556V100.271H220.153V99.2398H216.556V96.7016H220.261Z" fill="white"/>
<path d="M222.719 95.2407V104.727H223.839V97.9798L230.571 105.101V95.6698H229.459V102.362L222.719 95.2407Z" fill="white"/>
<path d="M235.775 104.727V96.7016H237.907V95.6699H232.531V96.7016H234.664V104.727H235.775Z" fill="white"/>
<path d="M244.802 96.7016V95.6699H239.977V104.727H244.802V103.695H241.097V100.271H244.693V99.2398H241.097V96.7016H244.802Z" fill="white"/>
<path d="M252.265 98.2537C252.271 97.8212 252.166 97.3945 251.96 97.0153C251.754 96.636 251.455 96.3172 251.09 96.0899C250.349 95.7503 249.535 95.6058 248.723 95.6698H247.368V104.727H248.488V100.892H248.949L251.587 104.727H252.943L250.114 100.792C250.722 100.717 251.28 100.415 251.678 99.945C252.076 99.4752 252.285 98.8718 252.265 98.2537ZM248.84 99.961H248.488V96.6832H248.831C249.934 96.6832 251.271 96.8841 251.271 98.2993C251.271 99.7145 249.988 99.961 248.831 99.961H248.84Z" fill="white"/>
<path d="M252.925 87.2793H0.525269V87.9641H252.925V87.2793Z" fill="white"/>
<path d="M252.952 112.296H0.543335V112.98H252.952V112.296Z" fill="white"/>
<path d="M34.1918 26.1715V36.7989C35.1454 37.6599 36.0504 38.5744 36.9025 39.538C39.9454 43.021 42.32 47.0459 43.905 51.4071V20.0361V16.2471H29.8005V17.5344C33.2521 17.5344 34.1918 21.1865 34.1918 26.1715Z" fill="white"/>
<path d="M3.50692 32.1425C7.38318 38.214 6.92238 46.285 9.90411 52.886C12.3969 58.7565 16.7305 63.636 22.2376 66.773C25.5899 68.4843 29.2442 69.5083 32.99 69.7859C34.3905 69.9228 35.809 70.005 37.2186 70.0507C37.8248 70.0702 38.4287 70.1342 39.0257 70.2424L39.351 70.3064H39.5317C41.2279 70.7469 42.7139 71.7824 43.7242 73.2279C43.8592 73.415 43.9829 73.6101 44.0946 73.8123V73.2279H69.3942V55.9629H68.2196C67.9233 58.4246 67.0956 60.7905 65.7951 62.8935C64.4945 64.9965 62.7528 66.7853 60.693 68.1334C54.6844 72.0685 47.0583 72.0137 44.8898 72.0137H44.1037V64.4356C43.8414 55.371 40.3062 46.7164 34.1646 40.1039C27.8397 33.3659 17.3584 28.0339 0.127633 28.0339H-0.0621338C0.121841 28.0579 0.296345 28.1303 0.443855 28.2439C1.61848 29.0017 3.11839 31.4851 3.50692 32.1425Z" fill="white"/>
<path d="M114.202 73.9311C115.574 74.0023 116.936 73.6563 118.112 72.9378C119.288 72.2193 120.224 71.1612 120.799 69.9001C121.374 68.6389 121.562 67.2326 121.339 65.8625C121.115 64.4924 120.49 63.2215 119.545 62.2135C118.6 61.2055 117.378 60.5067 116.036 60.2075C114.694 59.9082 113.294 60.0221 112.017 60.5345C110.74 61.0468 109.644 61.9342 108.87 63.082C108.097 64.2298 107.682 65.5854 107.678 66.974C107.638 67.8677 107.776 68.7604 108.085 69.5988C108.395 70.4372 108.868 71.2039 109.477 71.8534C110.086 72.5028 110.818 73.0216 111.63 73.3786C112.442 73.7356 113.316 73.9235 114.202 73.9311ZM114.202 60.4186C116.479 60.4186 117.969 63.0115 117.969 66.974C117.969 70.9365 116.479 73.5385 114.202 73.5385C111.925 73.5385 110.407 70.9456 110.407 66.974C110.407 63.0024 111.925 60.446 114.202 60.446V60.4186Z" fill="white"/>
<path d="M123.843 72.8353C123.597 73.0485 123.315 73.2155 123.011 73.3284C122.65 73.431 122.276 73.4832 121.9 73.4836V73.7483H129.671V73.4836C129.282 73.4838 128.897 73.4158 128.532 73.2828C127.068 72.7898 127.195 71.4567 127.195 70.215V67.2842H128.659C129.178 67.2707 129.697 67.3229 130.204 67.4395C130.515 67.5291 130.799 67.6989 131.026 67.9325C131.225 68.1241 131.369 68.3672 131.442 68.6355C131.546 68.973 131.607 69.3229 131.622 69.6763H131.857V64.5087H131.622C131.615 64.8518 131.563 65.1926 131.469 65.5222C131.378 65.7943 131.23 66.0434 131.035 66.2525C130.831 66.5003 130.545 66.6656 130.231 66.7182C129.727 66.8514 129.207 66.9128 128.686 66.9007H127.24V60.6192H128.532C129.135 60.612 129.739 60.6395 130.339 60.7015C130.737 60.7959 131.119 60.9531 131.469 61.1671C132.056 61.5229 132.524 62.0473 132.815 62.6735C133.015 63.0873 133.17 63.5221 133.276 63.97L133.511 63.8879L133.231 60.2358H122.397V60.4915C122.811 60.4941 123.218 60.6008 123.581 60.8019C123.835 60.9596 124.05 61.1757 124.207 61.4326C124.364 61.6895 124.459 61.9801 124.484 62.281C124.484 62.7192 124.538 63.194 124.538 63.5775V70.1877C124.636 71.1266 124.388 72.069 123.843 72.8353Z" fill="white"/>
<path d="M145.944 73.9494C146.452 73.9222 146.955 73.8364 147.443 73.6937C147.951 73.5485 148.444 73.356 148.916 73.1185L149.504 72.7898C149.619 72.7097 149.753 72.6624 149.892 72.6528C150.181 72.6528 150.38 72.8903 150.543 73.3833H150.796V68.453H150.57C150.3 69.833 149.715 71.1303 148.862 72.242C148.603 72.5293 148.288 72.7589 147.936 72.9161C147.585 73.0733 147.204 73.1547 146.82 73.155C146.102 73.2411 145.375 73.1074 144.733 72.7715C143.079 71.9133 142.103 69.9138 142.103 66.9831C142.103 64.0523 143.106 62.0072 144.814 61.1764C145.424 60.9131 146.086 60.7974 146.748 60.8385C147.53 60.8541 148.274 61.1824 148.817 61.7516C149.658 62.8603 150.241 64.1458 150.525 65.5131H150.75V60.6103H150.497C150.335 61.0851 150.136 61.3132 149.847 61.3132C149.711 61.3134 149.577 61.2789 149.458 61.2128L148.871 60.9024C148.402 60.6517 147.908 60.4497 147.398 60.2998C146.912 60.1487 146.407 60.0717 145.898 60.0715C144.136 60.1629 142.475 60.9348 141.259 62.2278C140.044 63.5208 139.366 65.2361 139.366 67.0195C139.366 68.803 140.044 70.5184 141.259 71.8114C142.475 73.1044 144.136 73.8763 145.898 73.9676L145.944 73.9494Z" fill="white"/>
<path d="M151.952 73.4838V73.7485H158.476V73.4838C156.56 73.4107 156.533 72.2146 156.533 70.2151V67.9874H158.422C158.792 68.1347 159.091 68.4232 159.253 68.7909C159.357 69.002 159.451 69.2183 159.533 69.4391C159.714 69.8317 159.894 70.3521 160.12 70.8634C160.744 72.3973 161.024 72.7898 160.771 73.1185C160.518 73.4472 160.147 73.3833 159.605 73.4563V73.7485H165.831V73.4563C165.522 73.4298 165.218 73.3623 164.927 73.2555C164.329 73.0335 163.831 72.5984 163.527 72.032C163.271 71.6607 163.056 71.2629 162.885 70.8451L162.551 70.06C162.486 69.9543 162.434 69.8408 162.397 69.7222C162.162 69.2271 161.807 68.8001 161.364 68.4808C160.922 68.1616 160.407 67.9605 159.867 67.8961C162.054 67.5583 163.635 66.0701 163.635 64.1163C163.635 61.8611 161.593 60.2451 159.036 60.2451H151.943V60.5098C153.488 60.5829 153.75 61.2859 153.832 62.3358V70.2974C153.832 70.4252 153.832 70.6077 153.832 70.7903C153.918 71.5228 153.782 72.2645 153.443 72.9177C153.257 73.1255 153.025 73.2853 152.766 73.3838C152.506 73.4823 152.227 73.5166 151.952 73.4838ZM156.515 60.6468H158.404C159.949 60.6468 160.879 62.0255 160.879 64.1254C160.879 66.2253 159.976 67.5948 158.404 67.5948H156.515V60.6468Z" fill="white"/>
<path d="M168.695 72.315C168.491 72.647 168.227 72.9379 167.918 73.1732C167.628 73.3487 167.298 73.4462 166.96 73.4563V73.7211H171.478V73.4563C170.674 73.3832 170.087 73.3285 169.852 72.8081C169.722 72.4488 169.673 72.0648 169.709 71.6841C169.745 71.3034 169.865 70.9356 170.059 70.6077C170.128 70.4941 170.18 70.3711 170.213 70.2425C170.226 70.1892 170.245 70.1373 170.267 70.0873H175.689C175.711 70.1373 175.729 70.1892 175.743 70.2425C175.769 70.3876 175.821 70.5268 175.896 70.6534C176.103 71.0382 176.218 71.4666 176.231 71.9042C176.232 72.1563 176.163 72.4036 176.032 72.6182C175.901 72.8327 175.713 73.006 175.49 73.1185C175.012 73.344 174.49 73.4594 173.963 73.4563V73.7211H181.968V73.4563C181.584 73.4236 181.203 73.3564 180.83 73.2554C180.587 73.1982 180.359 73.0893 180.161 72.9359C179.866 72.6974 179.612 72.4103 179.411 72.0868C179.094 71.4698 178.811 70.8359 178.562 70.1877C178.065 69.0465 177.55 67.7043 177.008 66.2435L175.363 62.0985L174.631 60.2725H173.728C173.186 61.7059 172.644 63.0115 172.102 64.3719C171.198 66.6544 170.159 69.3295 169.463 70.9912C169.289 71.4761 169.029 71.9248 168.695 72.315ZM173.032 63.1849L175.58 69.7221H170.448L173.032 63.1849Z" fill="white"/>
<path d="M195.133 69.9594L186.595 60.2815H185.275V70.2698C185.288 70.8266 185.246 71.3833 185.149 71.9315C185.092 72.271 184.942 72.5876 184.715 72.8445C184.546 73.0541 184.32 73.2096 184.065 73.2918C183.78 73.4191 183.472 73.4875 183.161 73.4928V73.7575H187.86V73.4928C187.53 73.4906 187.205 73.4223 186.902 73.2918C186.646 73.2164 186.421 73.0595 186.26 72.8445C186.046 72.5778 185.895 72.2657 185.817 71.9315L185.772 71.4658C185.772 71.1554 185.772 70.7629 185.772 70.2698V63.3949L195.034 73.7666H195.63V70.1694C195.63 68.0878 195.63 65.6044 195.63 63.5775C195.636 63.0729 195.678 62.5694 195.757 62.071C195.834 61.7368 195.985 61.4247 196.199 61.158C196.387 60.9685 196.603 60.8112 196.841 60.6924C197.132 60.5874 197.436 60.5258 197.744 60.5097V60.2542H193.073V60.5097C193.381 60.5258 193.686 60.5874 193.977 60.6924C194.211 60.8158 194.427 60.9726 194.618 61.158C194.832 61.4247 194.983 61.7368 195.061 62.071C195.151 62.5769 195.184 63.0914 195.16 63.6048V69.9959L195.133 69.9594Z" fill="white"/>
<path d="M200.862 71.9316C200.808 72.2283 200.683 72.507 200.497 72.7427C200.311 72.9785 200.07 73.1642 199.795 73.283C199.495 73.4115 199.173 73.4797 198.847 73.4838V73.7485H207.331C207.818 73.7844 208.306 73.7206 208.768 73.5607C209.229 73.4008 209.653 73.1481 210.016 72.818C210.378 72.4878 210.67 72.087 210.875 71.6397C211.08 71.1924 211.193 70.7078 211.207 70.2151C211.207 68.3891 209.789 67.1567 207.593 66.7732C208.159 66.6614 208.698 66.4356 209.176 66.1094C209.654 65.7831 210.062 65.363 210.376 64.8741C210.55 64.4634 210.648 64.024 210.665 63.5777C210.665 61.7516 208.985 60.2634 206.789 60.2634H198.82V60.519C199.141 60.5327 199.459 60.5849 199.768 60.6742C200.01 60.79 200.223 60.9584 200.392 61.1673C200.618 61.4258 200.771 61.7413 200.835 62.0803C200.923 62.6481 200.965 63.2221 200.961 63.7968V70.1878C200.971 70.7708 200.938 71.3536 200.862 71.9316ZM203.645 60.6194H205.732C207.078 60.6194 207.955 61.7882 207.955 63.6872C207.955 65.7597 206.997 66.6088 205.452 66.6088H203.645V60.6194ZM203.645 67.0105H205.994C206.897 67.0105 208.47 67.4761 208.47 70.2243C208.47 72.1964 207.566 73.3925 206.256 73.3925H203.654L203.645 67.0105Z" fill="white"/>
<path d="M223.64 63.5502V68.7088C223.64 71.4478 222.249 73.0729 219.972 73.0729C217.695 73.0729 216.231 71.4113 216.231 68.7088V63.605C216.231 61.5324 216.132 60.6468 218.12 60.519V60.2634H211.614V60.519C211.922 60.5207 212.227 60.5732 212.518 60.6742C213.258 60.9573 213.421 61.5325 213.521 62.4364C213.521 62.8564 213.521 63.2672 213.521 63.7876V68.4074C213.493 69.1504 213.619 69.8911 213.891 70.5822C214.163 71.2732 214.574 71.8993 215.098 72.4208C215.623 72.9422 216.249 73.3475 216.938 73.6107C217.626 73.8739 218.361 73.9893 219.095 73.9494C222.213 73.9494 223.993 71.9317 223.993 68.8183V63.5502C223.993 61.6603 224.173 60.5921 225.854 60.4643V60.2634H221.752V60.4643C223.46 60.5921 223.64 61.6603 223.64 63.5502Z" fill="white"/>
<path d="M233.543 73.4837C231.917 73.4107 231.61 72.5707 231.61 71.0734V67.9874H233.471C233.654 68.0591 233.821 68.1672 233.963 68.3051C234.104 68.4431 234.216 68.6083 234.293 68.7908L234.555 69.3843C234.736 69.7769 234.89 70.1694 235.097 70.6624L235.35 71.2012C237.474 75.2732 239.814 79.6557 243.374 82.066C244.477 82.8745 245.728 83.4525 247.055 83.766C248.381 84.0796 249.756 84.1224 251.099 83.8921V83.7915C244.079 82.4403 239.353 73.9585 237.682 70.1969C237.613 70.0821 237.559 69.9595 237.519 69.8317C237.519 69.7586 237.519 69.7312 237.519 69.7039C237.283 69.2093 236.928 68.7827 236.485 68.4635C236.043 68.1444 235.529 67.943 234.989 67.8778C237.185 67.54 238.757 66.0518 238.757 64.098C238.757 61.8428 236.715 60.2268 234.158 60.2268H227.065V60.4916C228.61 60.5647 228.872 61.2677 228.944 62.3176V70.2791C228.932 70.4432 228.932 70.608 228.944 70.7721C229.027 71.5035 228.895 72.2432 228.565 72.8994C228.372 73.1078 228.133 73.2675 227.868 73.3658C227.603 73.4641 227.318 73.4983 227.038 73.4655V73.7303H233.543V73.4837ZM231.61 60.6468H233.471C235.016 60.6468 235.947 62.0255 235.947 64.1254C235.947 66.2253 235.043 67.5947 233.471 67.5947H231.592L231.61 60.6468Z" fill="white"/>
<path d="M248.994 60.2634V60.519C249.111 60.5164 249.227 60.5405 249.333 60.5895C249.44 60.6385 249.534 60.7112 249.608 60.8021C249.791 60.9967 249.902 61.2479 249.925 61.5148C249.948 61.7817 249.881 62.0485 249.735 62.272C249.609 62.4754 249.495 62.6857 249.392 62.9019C248.804 63.9062 248.235 65.0293 247.747 65.9332L246.916 67.4397L246.012 65.7779C245.497 64.8649 244.856 63.5958 244.259 62.5641C244.149 62.3966 244.08 62.2054 244.056 62.0059C244.032 61.8063 244.055 61.604 244.123 61.4149C244.191 61.2259 244.301 61.0554 244.446 60.9173C244.59 60.7792 244.765 60.6771 244.955 60.6194L245.19 60.5647V60.309H239.073V60.5647C240.727 60.7747 240.754 61.5234 242.118 63.888C242.814 65.2028 243.537 66.481 243.925 67.2844L244.232 67.8231L244.341 68.0331V70.2608C244.341 71.0917 244.467 72.516 243.997 73.1186C243.663 73.5294 243.247 73.5294 242.705 73.5294V73.7942H248.831V73.5294C247.024 73.4563 247.124 72.6164 247.124 70.7082V68.0879C250.358 62.2537 250.639 60.7837 253.015 60.6194V60.3547L248.994 60.2634Z" fill="white"/>
<path d="M110.587 0.296783H111.102V7.99351C111.102 8.90652 110.614 9.24433 110.063 9.24433V9.44516H113.741V9.24433C113.19 9.24433 112.702 8.88826 112.702 7.99351V0.296783H113.217C113.307 0.296783 115.801 0.29681 115.927 2.60673H116.126V0.0959473H107.777V2.60673H107.976C108.021 0.33333 110.398 0.296783 110.587 0.296783Z" fill="white"/>
<path d="M120.201 9.24415C119.831 9.11633 119.858 8.86068 119.858 7.63725V5.08991H123.237V7.63725C123.237 8.77851 123.237 9.11633 122.894 9.24415V9.44499H125.415V9.24415C124.728 9.06155 124.8 8.72373 124.8 7.63725V2.01307C124.8 0.85355 124.8 0.460996 125.415 0.342304V0.141357H122.894V0.342304C123.255 0.460996 123.237 0.85355 123.237 2.01307V4.87994H119.84V2.01307C119.84 0.85355 119.84 0.460996 120.183 0.342304V0.141357H117.644V0.342304C118.277 0.460996 118.277 0.8992 118.277 2.01307V7.68283C118.277 8.86974 118.34 9.10713 117.644 9.28974V9.49057H120.183L120.201 9.24415Z" fill="white"/>
<path d="M134.08 6.57823H133.881C133.456 9.23509 130.556 9.2077 129.978 9.2077H129.436V4.78877H130.095C130.267 4.78877 131.975 4.78877 132.083 6.15828H132.273V3.23658H132.083C131.975 4.58784 130.276 4.58782 130.095 4.58782H129.436V0.260162H130.032C130.565 0.260162 133.484 0.260246 133.709 2.51538H133.908V0.0593262H127.068V0.260162C127.647 0.260162 127.809 0.853663 127.809 1.67537V7.71949C127.809 8.6325 127.619 9.2077 127.068 9.2077V9.40854H134.08V6.57823Z" fill="white"/>
<path d="M134.45 40.2593H133.691C132.092 50.3937 121.042 50.3024 118.792 50.3024H116.741V33.4208H119.243C119.903 33.4208 126.418 33.4208 126.824 38.6432H127.574V27.4863H126.851C126.445 32.6539 119.975 32.6539 119.271 32.6539H116.768V16.1284H119.027C121.078 16.1284 132.219 16.1832 133.068 24.7472H133.818V15.3706H107.705V16.1284C109.919 16.1284 110.515 18.4109 110.515 21.5517V44.6143C110.515 48.0655 109.819 50.2932 107.705 50.2932V51.051H134.45V40.2593Z" fill="white"/>
<path d="M146.784 20.5383V44.7695C146.784 48.2207 145.781 50.2932 143.63 50.2932V51.051H170.367V40.0949H169.662C168.361 50.3297 157.473 50.3298 154.762 50.3298H152.955V20.6387C152.955 16.9867 154.961 16.1284 157.121 16.1284V15.3706H143.224V16.1284C145.383 16.1284 146.784 17.4432 146.784 20.5383Z" fill="white"/>
<path d="M189.594 50.2932C183.324 50.2932 182.926 41.2727 182.926 38.3328V20.7938L196.967 51.5075H197.726L210.376 17.5436V45.0252C210.376 48.8233 208.876 50.2932 206.762 50.2932V51.051H220.821V50.2932C218.662 50.2932 216.602 48.8233 216.602 45.0252V20.593C216.602 17.3427 218.309 16.1284 220.469 16.1284V15.3706H210.412L200.428 42.5874L187.887 15.3706H176.547V16.1284C177.712 16.097 178.861 16.4059 179.856 17.0181C180.851 17.6303 181.651 18.5197 182.158 19.5796V38.3328C182.158 41.2179 181.706 50.2932 174.884 50.2932V51.051H189.585L189.594 50.2932Z" fill="white"/>
<path d="M234.546 33.2655L242.525 38.4332C248.542 42.7883 247.187 50.7497 240.718 50.7497C231.989 50.7497 229.423 43.4 228.628 38.7893H227.869V48.5219C227.869 48.5219 231.781 51.5075 240.718 51.5075C248.642 51.5075 250.901 47.3533 250.901 47.3533C254.108 42.487 252.157 36.9633 245.479 32.4986L237.456 27.1758C230.435 22.6108 233.489 15.6718 238.91 15.6718C247.088 15.6718 249.59 22.0081 250.295 25.861H251.045V17.3427C251.045 17.3427 246.835 14.9141 238.91 14.9141C231.438 14.9141 228.971 18.8126 228.971 18.8126C224.96 24.592 228.574 29.4035 234.546 33.2655Z" fill="white"/>
<path d="M50.8804 57.8254H50.9527C52.1903 57.5732 53.449 57.4417 54.7115 57.4328C61.461 56.9032 68.2648 55.762 74.1651 52.183C81.2851 47.8827 86.4263 40.9895 89.5255 33.1833C93.0404 24.3271 91.9561 13.7636 96.6817 5.55559C96.9527 5.0717 97.6756 3.72961 98.4888 2.51531C99.0292 1.61115 99.6991 0.792721 100.477 0.0866699C79.487 1.15489 66.4487 7.87465 58.3799 16.2926H70.6593V31.2843H69.4847C68.9335 25.5871 65.5813 22.2546 61.6418 20.3281C59.9796 19.5257 58.234 18.9132 56.4373 18.5021C49.5612 26.7192 46.9319 36.1962 46.0012 43.5002V43.975H48.3866C50.7087 43.9202 59.1751 43.2629 59.7443 35.7579H60.8918V53.589H59.7172C59.1118 45.5363 49.6155 45.2532 48.0252 45.2441H45.9832V63.4039C46.9048 60.5188 48.5944 58.4828 50.8804 57.8254Z" fill="white"/>
</g>
<defs>
<clipPath id="clip0_1_120">
<rect width="252.941" height="112.903" fill="white" transform="translate(0.0283203 0.0776367)"/>
</clipPath>
</defs>
</svg>
